<svg xmlns="http://www.w3.org/2000/svg" width="32" height="32" fill="none">
  <!-- Outer rectangle for the calculator body -->
  <rect width="32" height="32" rx="4" fill="#333"/> <!-- Dark gray body -->

  <!-- Inner rectangle for the display area -->
  <rect x="4" y="4" width="24" height="6" rx="1" fill="#A3E7EF"/> <!-- Light grayish-blue display -->

  <!-- Buttons in a 3x3 grid, colored in different rows -->
  <!-- First row of buttons - deep navy blue -->
  <rect x="7" y="12" width="6" height="6" rx="1" fill="#0A3D62"/>
  <rect x="13" y="12" width="6" height="6" rx="1" fill="#0A3D62"/>
  <rect x="19" y="12" width="6" height="6" rx="1" fill="#0A3D62"/>
  
  <!-- Second row of buttons - deep navy blue -->
  <rect x="7" y="18" width="6" height="6" rx="1" fill="#0A3D62"/>
  <rect x="13" y="18" width="6" height="6" rx="1" fill="#0A3D62"/>
  <rect x="19" y="18" width="6" height="6" rx="1" fill="#0A3D62"/>
  
  <!-- Third row of buttons - teal -->
  <rect x="7" y="24" width="6" height="6" rx="1" fill="#128C7E"/>
  <rect x="13" y="24" width="6" height="6" rx="1" fill="#128C7E"/>
  <rect x="19" y="24" width="6" height="6" rx="1" fill="#128C7E"/>
  
  <!-- Right large button - bright orange -->
  <rect x="19" y="24" width="6" height="12" rx="1" fill="#FF6B6B"/>
</svg>
